<?xml version="1.0" encoding="iso-8859-1"?>
<!-- Generator: Adobe Illustrator 19.0.0, SVG Export Plug-In . SVG Version: 6.00 Build 0)  -->
<svg version="1.1" id="Capa_1" xmlns="http://www.w3.org/2000/svg" xmlns:xlink="http://www.w3.org/1999/xlink" x="0px" y="0px"
	 viewBox="0 0 436.907 436.907" style="enable-background:new 0 0 436.907 436.907;" xml:space="preserve">
<circle style="fill:#45B39C;" cx="218.453" cy="218.453" r="218.453"/>
<path style="opacity:0.1;enable-background:new    ;" d="M91.095,294.974l0.132,0.132c0.073,0.082,0.147,0.155,0.229,0.229
	l141.072,141.072c86.974-5.537,160.079-61.942,189.927-139.811l-75.992-75.992h-6.415l-7.435-7.435l-0.06-0.02
	c-0.414-0.937-1.078-1.772-2.064-2.273l-179.132-92.365c-2.287-1.16-5.086-0.273-6.246,2.014c-1.195,2.287-0.307,5.086,1.98,6.28
	l93.423,93.423H229.66v0.376h-33.758v10.206l-25.429-25.429h-8.886l-16.325-16.325c-0.035-0.037-0.069-0.07-0.106-0.106
	l-0.054-0.054l-0.003,0.016c-0.515-0.466-1.182-0.768-1.932-0.768h-5.598c-1.604,0-2.901,1.297-2.901,2.901v10.889h-1.604v3.448
	h-15.565c-2.321,0-4.471,1.229-5.735,3.174l-20.002,31.983c-0.853,1.365-1.297,2.97-1.297,4.574v48.06
	c0,0.682,0.271,1.289,0.667,1.791L91.095,294.974z"/>
<path style="fill:#E56353;" d="M170.464,205.395h-52.967c-2.325,0-4.487,1.197-5.72,3.168l-20.005,31.959
	c-0.862,1.377-1.319,2.968-1.319,4.592v47.999c0,1.661,1.347,3.008,3.008,3.008h77.002V205.395z"/>
<polygon style="fill:#D5D6DB;" points="149.236,215.004 124.148,215.004 109.611,236.788 109.611,255.689 149.236,255.689 "/>
<polygon style="fill:#EBF0F3;" points="109.611,236.788 124.148,215.004 149.236,215.004 149.236,227.774 "/>
<rect x="195.891" y="220.604" style="fill:#D15241;" width="150.562" height="56.03"/>
<g>
	<rect x="170.458" y="276.623" style="fill:#F6C358;" width="175.991" height="19.483"/>
	<path style="fill:#F6C358;" d="M93.396,296.109h59.269v-20.501H90.453v17.558C90.453,294.792,91.771,296.109,93.396,296.109z"/>
</g>
<circle style="fill:#2F4859;" cx="145.067" cy="296.107" r="22.784"/>
<circle style="fill:#D5D6DB;" cx="145.067" cy="296.107" r="14.804"/>
<circle style="fill:#2F4859;" cx="297.165" cy="296.107" r="22.784"/>
<circle style="fill:#D5D6DB;" cx="297.165" cy="296.107" r="14.804"/>
<path id="SVGCleanerId_0" style="fill:#D5D6DB;" d="M96.357,270.52h-5.903v-11.195h5.903c2.143,0,3.881,1.738,3.881,3.881v3.433
	C100.238,268.782,98.5,270.52,96.357,270.52z"/>
<g>
	<path id="SVGCleanerId_0_1_" style="fill:#D5D6DB;" d="M96.357,270.52h-5.903v-11.195h5.903c2.143,0,3.881,1.738,3.881,3.881v3.433
		C100.238,268.782,98.5,270.52,96.357,270.52z"/>
</g>
<rect x="133.079" y="201.912" style="fill:#D5D6DB;" width="14.462" height="3.468"/>
<path style="fill:#27A2DB;" d="M134.684,201.927h11.385v-10.881c0-1.595-1.293-2.888-2.888-2.888h-5.608
	c-1.595,0-2.888,1.293-2.888,2.888V201.927z"/>
<path style="fill:#D15241;" d="M136.211,200.08h8.332v-7.189c0-1.595-1.293-2.888-2.888-2.888h-2.555
	c-1.595,0-2.888,1.293-2.888,2.888V200.08z"/>
<g>
	<rect x="229.649" y="220.228" style="fill:#D5D6DB;" width="28.812" height="44.715"/>
	<rect x="271.701" y="236.373" style="fill:#D5D6DB;" width="28.812" height="28.788"/>
</g>
<g>
	<polygon style="fill:#CE412D;" points="271.702,220.595 300.513,220.595 300.513,205.395 271.702,183.359 	"/>
</g>
<path style="fill:#DC8744;" d="M328.357,219.659c-0.718,0-1.445-0.166-2.127-0.518l-179.127-92.348
	c-2.286-1.177-3.182-3.984-2.005-6.268c1.177-2.289,3.986-3.184,6.268-2.005l179.127,92.348c2.286,1.177,3.182,3.984,2.005,6.268
	C331.67,218.741,330.043,219.659,328.357,219.659z"/>
<path style="fill:#D5D6DB;" d="M340.55,270.52h5.903v-11.195h-5.903c-2.143,0-3.881,1.738-3.881,3.881v3.433
	C336.669,268.782,338.407,270.52,340.55,270.52z"/>
<g>
</g>
<g>
</g>
<g>
</g>
<g>
</g>
<g>
</g>
<g>
</g>
<g>
</g>
<g>
</g>
<g>
</g>
<g>
</g>
<g>
</g>
<g>
</g>
<g>
</g>
<g>
</g>
<g>
</g>
</svg>
