<?xml version="1.0" encoding="iso-8859-1"?>
<!-- Generator: Adobe Illustrator 19.0.0, SVG Export Plug-In . SVG Version: 6.00 Build 0)  -->
<svg version="1.1" id="Capa_1" xmlns="http://www.w3.org/2000/svg" xmlns:xlink="http://www.w3.org/1999/xlink" x="0px" y="0px"
	 viewBox="0 0 436.907 436.907" style="enable-background:new 0 0 436.907 436.907;" xml:space="preserve">
<circle style="fill:#45B39C;" cx="218.453" cy="218.453" r="218.453"/>
<path style="opacity:0.1;enable-background:new    ;" d="M92.507,245.35l183.764,183.764
	c78.909-21.61,139.995-86.312,156.312-167.272l-86.124-86.124c0-0.478-0.375-0.853-0.819-0.853h-92.57
	c-1.229,0-2.219,0.99-2.219,2.219v4.232l-5.871-5.871c0-0.478-0.375-0.853-0.819-0.853h-92.57c-1.195,0-2.185,0.99-2.185,2.219
	v11.879l-4.779-4.779h-35.874c-1.57,0-3.038,0.785-3.857,2.15l-13.551,21.64c-0.58,0.922-0.888,1.98-0.888,3.106v32.495
	C90.458,244.429,91.38,245.35,92.507,245.35z"/>
<path style="fill:#DC8744;" d="M149.402,245.329h95.586v-69.9c0-0.456-0.37-0.826-0.826-0.826h-92.563
	c-1.213,0-2.196,0.983-2.196,2.196V245.329z"/>
<path style="fill:#D5D6DB;" d="M144.635,183.899h-35.868c-1.575,0-3.038,0.811-3.874,2.145l-13.547,21.642
	c-0.583,0.932-0.893,2.01-0.893,3.11V243.3c0,1.125,0.912,2.037,2.037,2.037h52.144V183.899z"/>
<polygon style="fill:#2D93BA;" points="130.26,190.406 113.271,190.406 103.426,205.158 103.426,217.957 130.26,217.957 "/>
<polygon style="fill:#27A2DB;" points="103.426,205.158 113.271,190.406 130.26,190.406 130.26,199.053 "/>
<g>
	<rect x="144.657" y="232.124" style="fill:#64798A;" width="100.352" height="13.193"/>
	<path style="fill:#64798A;" d="M93.396,245.329h33.631v-13.883H90.453v10.94C90.453,244.011,91.771,245.329,93.396,245.329z"/>
</g>
<circle style="fill:#2F4859;" cx="127.42" cy="246.886" r="15.428"/>
<circle style="fill:#D5D6DB;" cx="127.42" cy="246.886" r="10.025"/>
<path style="fill:#E56353;" d="M94.299,228h-3.846v-7.581h3.846c1.535,0,2.78,1.245,2.78,2.78v2.022
	C97.079,226.756,95.835,228,94.299,228z"/>
<circle style="fill:#2F4859;" cx="212.139" cy="246.886" r="15.428"/>
<circle style="fill:#D5D6DB;" cx="212.139" cy="246.886" r="10.025"/>
<path style="fill:#DC8744;" d="M250.868,245.602h95.586v-69.9c0-0.456-0.37-0.826-0.826-0.826h-92.563
	c-1.213,0-2.196,0.983-2.196,2.196V245.602z"/>
<rect x="241.674" y="232.397" style="fill:#64798A;" width="104.779" height="13.193"/>
<path style="fill:#FCD462;" d="M342.607,228.273h3.846v-7.581h-3.846c-1.535,0-2.78,1.245-2.78,2.78v2.022
	C339.828,227.028,341.072,228.273,342.607,228.273z"/>
<circle style="fill:#2F4859;" cx="271.36" cy="246.886" r="15.428"/>
<circle style="fill:#D5D6DB;" cx="271.36" cy="246.886" r="10.025"/>
<circle style="fill:#2F4859;" cx="325.769" cy="246.886" r="15.428"/>
<g>
	<circle style="fill:#D5D6DB;" cx="325.769" cy="246.886" r="10.025"/>
	<path style="fill:#D5D6DB;" d="M342.607,217.688h3.846v-7.581h-3.846c-1.535,0-2.78,1.245-2.78,2.78v2.022
		C339.828,216.444,341.072,217.688,342.607,217.688z"/>
</g>
<g>
</g>
<g>
</g>
<g>
</g>
<g>
</g>
<g>
</g>
<g>
</g>
<g>
</g>
<g>
</g>
<g>
</g>
<g>
</g>
<g>
</g>
<g>
</g>
<g>
</g>
<g>
</g>
<g>
</g>
</svg>
