<?xml version="1.0" encoding="iso-8859-1"?>
<!-- Generator: Adobe Illustrator 19.0.0, SVG Export Plug-In . SVG Version: 6.00 Build 0)  -->
<svg version="1.1" id="Capa_1" xmlns="http://www.w3.org/2000/svg" xmlns:xlink="http://www.w3.org/1999/xlink" x="0px" y="0px"
	 viewBox="0 0 436.907 436.907" style="enable-background:new 0 0 436.907 436.907;" xml:space="preserve">
<circle style="fill:#EA8953;" cx="218.453" cy="218.453" r="218.453"/>
<path style="opacity:0.1;enable-background:new    ;" d="M94.724,243.06l29.026,29.025c1.557,2.013,3.362,3.817,5.374,5.374
	l150.657,150.658c69.633-20.337,124.867-74.367,146.827-143.291l-87.131-87.131l-0.01,0.001c-2.305-2.405-5.353-4.528-9.425-5.867
	c-2.628-1.195-5.462-2.15-8.568-2.765l-22.221-5.598l-48.572-28.535c-1.946-1.161-4.165-1.741-6.417-1.741H107.561l5.837,3.72
	c0,0-12.117,6.759-16.76,25.429h-0.034c0,0-0.136,0.649-0.307,1.707c-0.376,1.604-0.649,3.277-0.888,5.052
	c-0.41,2.97-0.785,6.212-0.581,8.021c-1.126,2.833,1.4,15.77,1.57,16.657C96.101,214.239,84.386,232.837,94.724,243.06z"/>
<path style="fill:#2D93BA;" d="M96.412,213.757c0,0-19.128,29.755,11.158,35.068H325.2c11.689,0,21.254-9.564,21.254-21.254v-10.469
	c0-14.324-9.793-25.029-24.963-28.025l-22.232-5.607l-48.566-28.539c-1.947-1.144-4.164-1.747-6.422-1.747H107.57l5.845,3.719
	C113.415,156.904,88.442,170.719,96.412,213.757z"/>
<path style="fill:#1C75A1;" d="M96.412,213.757c0,0-19.128,29.755,11.158,35.068H325.2c15.957-0.804,21.254-12.228,21.254-23.379
	V213.87H96.412c0,0-2.734-13.813-1.566-16.736h16.577l1.461,16.736H96.412"/>
<path style="fill:#D5D6DB;" d="M330.029,191.823l0.244,22.208l16.18-0.162C346.453,213.87,345.822,197.029,330.029,191.823z"/>
<path style="fill:#CE412D;" d="M96.146,199.523h12.221l1.594,11.955H98.006C98.006,211.478,95.349,206.032,96.146,199.523z"/>
<circle style="fill:#2F4859;" cx="147.354" cy="253.85" r="29.877"/>
<circle style="fill:#D5D6DB;" cx="147.354" cy="253.85" r="19.412"/>
<g>
	<circle style="fill:#2F4859;" cx="147.354" cy="253.85" r="9.264"/>
	<circle style="fill:#2F4859;" cx="281.327" cy="253.85" r="29.877"/>
</g>
<circle style="fill:#D5D6DB;" cx="281.327" cy="253.85" r="19.412"/>
<circle style="fill:#2F4859;" cx="281.327" cy="253.85" r="9.264"/>
<path style="fill:#FCD462;" d="M111.422,197.133l-1.461-14.785H96.61c0,0-2.219,10.746-1.764,14.785H111.422z"/>
<path style="fill:#CE412D;" d="M98,186.113h8.906l1.162,8.712h-8.712C99.355,194.825,97.419,190.856,98,186.113z"/>
<path style="fill:#FFFFFF;" d="M333.155,197.41v13.532h10.029C343.184,210.941,342.511,201.677,333.155,197.41z"/>
<path style="fill:#E1E6E9;" d="M204.268,159.76h43.922l35.355,27.134c1.203,0.923,0.55,2.847-0.966,2.847h-78.311V159.76z"/>
<polygon style="fill:#FFFFFF;" points="204.268,189.741 204.268,159.76 248.19,159.76 "/>
<rect x="204.268" y="193.229" style="fill:#3A556A;" width="20.077" height="6.298"/>
<rect x="208.039" y="194.406" style="fill:#2F4859;" width="12.541" height="3.936"/>
<g>
</g>
<g>
</g>
<g>
</g>
<g>
</g>
<g>
</g>
<g>
</g>
<g>
</g>
<g>
</g>
<g>
</g>
<g>
</g>
<g>
</g>
<g>
</g>
<g>
</g>
<g>
</g>
<g>
</g>
</svg>
