<?xml version="1.0" encoding="iso-8859-1"?>
<!-- Generator: Adobe Illustrator 19.0.0, SVG Export Plug-In . SVG Version: 6.00 Build 0)  -->
<svg version="1.1" id="Capa_1" xmlns="http://www.w3.org/2000/svg" xmlns:xlink="http://www.w3.org/1999/xlink" x="0px" y="0px"
	 viewBox="0 0 436.907 436.907" style="enable-background:new 0 0 436.907 436.907;" xml:space="preserve">
<circle style="fill:#E05B49;" cx="218.453" cy="218.453" r="218.453"/>
<g style="opacity:0.1;">
	<path d="M304.128,161.109c-1.365-1.365-3.072-2.048-5.12-2.048H99.328c-4.779,0-8.875,4.096-8.875,8.875v35.157v3.755v9.216v2.389
		v9.216v10.923v7.168c0,2.389,0.683,4.096,2.048,5.803l0,0l0.341,0.341c0,0.341,0.341,0.341,0.341,0.341L271.36,430.421
		c73.728-18.432,132.779-74.411,155.307-146.432L304.128,161.109L304.128,161.109z"/>
</g>
<path style="fill:#FCD462;" d="M299.008,254.635H99.328c-4.779,0-8.875-4.096-8.875-8.875v-77.824c0-4.779,4.096-8.875,8.875-8.875
	h199.68c4.779,0,7.509,4.096,8.875,8.875l29.013,78.507C336.896,251.563,304.128,254.635,299.008,254.635z"/>
<g>
	<path style="fill:#F6C358;" d="M346.453,254.635H296.96v-51.2h21.845c15.36,0,27.648,12.288,27.648,27.648V254.635z"/>
	<path style="fill:#F6C358;" d="M90.453,203.093v42.667c0,4.779,4.096,8.875,8.875,8.875h199.68c4.779,0,8.875-4.096,8.875-8.875
		v-42.667H90.453z"/>
</g>
<path style="fill:#64798A;" d="M346.453,238.592h-256v7.168c0,4.779,4.096,8.875,8.875,8.875h247.125"/>
<path style="fill:#2D93BA;" d="M310.613,193.877l-11.947-25.259c-1.024-1.707-2.731-3.072-4.779-3.072h-25.6v28.331H310.613z"/>
<path style="fill:#27A2DB;" d="M293.888,165.547h-25.6v28.331l30.379-25.259C297.643,166.571,295.936,165.547,293.888,165.547z"/>
<rect x="232.107" y="165.547" style="fill:#2D93BA;" width="31.061" height="28.331"/>
<polygon style="fill:#27A2DB;" points="232.107,193.877 232.107,165.547 262.827,165.547 "/>
<rect x="194.901" y="165.547" style="fill:#2D93BA;" width="31.061" height="28.331"/>
<polygon style="fill:#27A2DB;" points="194.901,193.877 194.901,165.547 225.963,165.547 "/>
<rect x="158.037" y="165.547" style="fill:#2D93BA;" width="31.061" height="28.331"/>
<polygon style="fill:#27A2DB;" points="158.037,193.877 158.037,165.547 189.099,165.547 "/>
<rect x="121.173" y="165.547" style="fill:#2D93BA;" width="31.061" height="28.331"/>
<polygon style="fill:#27A2DB;" points="121.173,193.877 121.173,165.547 152.235,165.547 "/>
<rect x="99.669" y="165.547" style="fill:#2D93BA;" width="12.971" height="28.331"/>
<polygon style="fill:#27A2DB;" points="99.669,193.877 99.669,165.547 112.64,165.547 "/>
<circle style="fill:#2F4859;" cx="301.397" cy="254.635" r="23.211"/>
<circle style="fill:#D5D6DB;" cx="301.397" cy="254.635" r="16.725"/>
<circle style="fill:#3A556A;" cx="301.397" cy="254.635" r="8.875"/>
<circle style="fill:#2F4859;" cx="191.147" cy="254.635" r="23.211"/>
<circle style="fill:#D5D6DB;" cx="191.147" cy="254.635" r="16.725"/>
<circle style="fill:#3A556A;" cx="191.147" cy="254.635" r="8.875"/>
<circle style="fill:#2F4859;" cx="135.851" cy="254.635" r="23.211"/>
<circle style="fill:#D5D6DB;" cx="135.851" cy="254.635" r="16.725"/>
<g>
	<circle style="fill:#3A556A;" cx="135.851" cy="254.635" r="8.875"/>
	<path style="fill:#3A556A;" d="M141.312,206.848c-0.341,0.341-0.341,0.683-0.341,1.024c0,0.341,0,0.683,0.341,1.024
		c0.341,0.341,1.024,0.683,2.389,1.024c1.365,0.341,2.048,0.683,2.731,1.365c0.683,0.683,1.024,1.707,1.024,2.731
		c0,1.365-0.341,2.389-1.365,3.072c-1.024,0.683-2.048,1.024-3.413,1.024c-2.048,0-3.755-0.683-5.461-2.389l1.707-2.389
		c1.365,1.365,2.731,2.048,3.755,2.048c0.683,0,1.024,0,1.365-0.341c0.341-0.341,0.341-0.683,0.341-1.024s0-0.683-0.341-1.024
		c-0.341-0.341-1.024-0.341-2.048-0.683c-1.365-0.341-2.731-1.024-3.413-1.365c-0.683-0.683-1.024-1.707-1.024-3.072
		c0-1.365,0.341-2.389,1.365-3.072c1.024-0.683,2.048-1.024,3.413-1.024c0.683,0,1.707,0,2.389,0.341
		c0.683,0.341,1.707,0.683,2.389,1.365l-1.365,2.389c-1.024-1.024-2.389-1.365-3.413-1.365
		C141.995,206.507,141.653,206.507,141.312,206.848z"/>
	<path style="fill:#3A556A;" d="M157.013,215.381c1.365,0,2.389-0.683,3.413-1.707l1.707,2.048c-1.365,1.707-3.072,2.731-5.12,2.731
		s-3.413-0.683-4.779-2.048c-1.365-1.365-2.048-3.072-2.048-5.12c0-2.048,0.683-3.755,2.048-5.12
		c1.365-1.365,2.731-2.048,4.779-2.048c2.048,0,3.755,1.024,5.12,2.731l-1.707,2.389c-1.024-1.365-2.048-1.707-3.413-1.707
		c-1.024,0-2.048,0.341-2.731,1.024c-0.683,0.683-1.024,1.707-1.024,3.072s0.341,2.389,1.024,3.072
		C155.307,215.04,155.989,215.381,157.013,215.381z"/>
	<path style="fill:#3A556A;" d="M174.08,204.117h2.731v14.336h-2.731v-5.461h-5.12v5.461h-2.731v-14.336h2.731v5.803h5.12V204.117z"
		/>
	<path style="fill:#3A556A;" d="M192.171,216.405c-1.365,1.365-2.731,2.048-4.779,2.048c-2.048,0-3.413-0.683-4.779-2.048
		c-1.365-1.365-2.048-3.072-2.048-5.12c0-2.048,0.683-3.755,2.048-5.12s2.731-2.048,4.779-2.048c2.048,0,3.413,0.683,4.779,2.048
		s2.048,3.072,2.048,5.12C193.877,212.992,193.195,214.699,192.171,216.405z M191.147,210.944c0-1.365-0.341-2.389-1.024-3.072
		c-0.683-1.024-1.707-1.365-2.731-1.365s-2.048,0.341-2.731,1.365c-0.683,1.024-1.024,2.048-1.024,3.072
		c0,1.365,0.341,2.389,1.024,3.072c0.683,1.024,1.707,1.365,2.731,1.365s2.048-0.341,2.731-1.365
		C190.805,213.333,191.147,212.309,191.147,210.944z"/>
	<path style="fill:#3A556A;" d="M208.555,216.405c-1.365,1.365-2.731,2.048-4.779,2.048c-2.048,0-3.413-0.683-4.779-2.048
		c-1.365-1.365-2.048-3.072-2.048-5.12c0-2.048,0.683-3.755,2.048-5.12c1.365-1.365,2.731-2.048,4.779-2.048
		c2.048,0,3.413,0.683,4.779,2.048c1.365,1.365,2.048,3.072,2.048,5.12C210.261,212.992,209.92,214.699,208.555,216.405z
		 M207.531,210.944c0-1.365-0.341-2.389-1.024-3.072c-0.683-1.024-1.707-1.365-2.731-1.365c-1.024,0-2.048,0.341-2.731,1.365
		c-0.683,1.024-1.024,2.048-1.024,3.072c0,1.365,0.341,2.389,1.024,3.072c0.683,1.024,1.707,1.365,2.731,1.365
		c1.024,0,2.048-0.341,2.731-1.365C207.189,213.333,207.531,212.309,207.531,210.944z"/>
	<path style="fill:#3A556A;" d="M214.357,218.112v-14.336h2.731v11.264h5.461v2.731h-8.192V218.112z"/>
	<path style="fill:#3A556A;" d="M237.568,218.112h-5.461v-14.336h5.12c1.024,0,1.707,0,2.389,0.341
		c0.683,0.341,1.024,0.683,1.365,1.024c0.683,0.683,1.024,1.707,1.024,2.389c0,1.024-0.341,2.048-1.024,2.389
		c-0.341,0.341-0.341,0.341-0.341,0.341s-0.341,0-0.341,0.341c0.683,0.341,1.365,0.683,2.048,1.024
		c0.341,0.683,0.683,1.365,0.683,2.389c0,1.024-0.341,1.707-1.024,2.731C240.64,217.771,239.275,218.112,237.568,218.112z
		 M234.837,209.92h1.365c0.683,0,1.365,0,1.707-0.341c0.341-0.341,0.683-0.683,0.683-1.365c0-0.683-0.341-1.024-0.683-1.365
		c-0.341-0.341-1.024-0.341-1.707-0.341h-1.365V209.92z M234.837,215.381h2.048c0.683,0,1.365,0,1.707-0.341
		s0.683-0.683,0.683-1.365c0-0.683-0.341-1.024-0.683-1.365s-1.024-0.341-2.048-0.341h-1.707V215.381z"/>
	<path style="fill:#3A556A;" d="M249.515,214.699c0.341,0.683,1.024,1.024,2.048,1.024c0.683,0,1.365-0.341,2.048-1.024
		c0.341-0.683,0.683-1.707,0.683-2.731v-7.851h2.731v7.851c0,2.048-0.341,3.755-1.365,4.779c-1.024,1.024-2.389,1.707-3.755,1.707
		c-1.707,0-3.072-0.683-4.096-1.707c-1.024-1.024-2.048-2.731-2.048-4.779v-7.851h2.731v7.851
		C248.832,212.992,248.832,214.016,249.515,214.699z"/>
	<path style="fill:#3A556A;" d="M264.192,206.848c-0.341,0.341-0.341,0.683-0.341,1.024c0,0.341,0,0.683,0.341,1.024
		c0.341,0.341,1.024,0.683,2.389,1.024c1.365,0.341,2.048,0.683,2.731,1.365c0.683,0.683,1.024,1.707,1.024,2.731
		c0,1.365-0.341,2.389-1.365,3.072c-1.024,0.683-2.048,1.024-3.413,1.024c-2.048,0-3.755-0.683-5.461-2.389l1.707-2.389
		c1.365,1.365,2.731,2.048,3.755,2.048c0.683,0,1.024,0,1.365-0.341c0.341-0.341,0.341-0.683,0.341-1.024s0-0.683-0.341-1.024
		c-0.341-0.341-1.024-0.341-2.048-0.683c-1.365-0.341-2.731-1.024-3.413-1.365c-0.683-0.683-1.024-1.707-1.024-3.072
		c0-1.365,0.341-2.389,1.365-3.072c1.024-0.683,2.048-1.024,3.413-1.024c0.683,0,1.707,0,2.389,0.341
		c0.683,0.341,1.707,0.683,2.389,1.365l-1.365,2.389c-1.024-1.024-2.389-1.365-3.413-1.365
		C264.875,206.507,264.533,206.507,264.192,206.848z"/>
</g>
<path style="fill:#E56353;" d="M101.717,216.064H90.453v-9.216h11.264c2.389,0,4.779,2.048,4.779,4.779l0,0
	C106.155,214.016,104.107,216.064,101.717,216.064z"/>
<path style="fill:#D15241;" d="M101.717,227.669H90.453v-9.216h11.264c2.389,0,4.779,2.048,4.779,4.779l0,0
	C106.155,225.621,104.107,227.669,101.717,227.669z"/>
<path style="fill:#E1E6E9;" d="M333.824,207.531v10.923c0,1.365,1.024,2.048,2.048,2.048h8.533
	C344.405,220.843,341.675,211.968,333.824,207.531z"/>
<g>
</g>
<g>
</g>
<g>
</g>
<g>
</g>
<g>
</g>
<g>
</g>
<g>
</g>
<g>
</g>
<g>
</g>
<g>
</g>
<g>
</g>
<g>
</g>
<g>
</g>
<g>
</g>
<g>
</g>
</svg>
