<?xml version="1.0" encoding="iso-8859-1"?>
<!-- Generator: Adobe Illustrator 19.0.0, SVG Export Plug-In . SVG Version: 6.00 Build 0)  -->
<svg version="1.1" id="Capa_1" xmlns="http://www.w3.org/2000/svg" xmlns:xlink="http://www.w3.org/1999/xlink" x="0px" y="0px"
	 viewBox="0 0 436.907 436.907" style="enable-background:new 0 0 436.907 436.907;" xml:space="preserve">
<circle style="fill:#45B39C;" cx="218.453" cy="218.453" r="218.453"/>
<path style="opacity:0.1;enable-background:new    ;" d="M90.988,261.106l0.117,0.117c0.073,0.084,0.148,0.158,0.232,0.232
	L262.37,432.488c82.643-16.867,148.261-80.412,168.223-161.885l-92.63-92.63l-0.005,0.002c-6.49-7.592-16.119-12.427-26.896-12.427
	h-48.06l-9.865-9.865h-44.885v2.97l3.174,3.174v3.721h-12.561c-16.741,0-30.763,11.682-34.431,27.317l-6.871-6.871h-44.408
	c-1.98,0-3.789,0.99-4.813,2.662L91.551,215.45c-0.717,1.16-1.092,2.492-1.092,3.857v40.277c0,0.573,0.231,1.085,0.564,1.515
	L90.988,261.106z"/>
<path style="fill:#DC8744;" d="M198.873,262.085h112.189c19.546,0,35.392-15.845,35.392-35.392v-25.74
	c0-19.546-15.845-35.392-35.392-35.392H198.873c-19.546,0-35.392,15.845-35.392,35.392v25.74
	C163.481,246.239,179.326,262.085,198.873,262.085z"/>
<path style="fill:#FCD462;" d="M157.576,185.983h-44.435c-1.951,0-3.764,1.004-4.799,2.658L91.56,215.452
	c-0.723,1.155-1.106,2.49-1.106,3.852v40.267c0,1.394,1.13,2.524,2.524,2.524h64.598V185.983z"/>
<polygon style="fill:#2D93BA;" points="139.767,194.044 118.721,194.044 106.525,212.319 106.525,228.176 139.767,228.176 "/>
<polygon style="fill:#27A2DB;" points="106.525,212.319 118.721,194.044 139.767,194.044 139.767,204.757 "/>
<rect x="157.594" y="245.753" style="fill:#F6C358;" width="177.732" height="16.343"/>
<path style="fill:#64798A;" d="M93.396,262.085h16.207v-17.199h-19.15v14.256C90.453,260.767,91.771,262.085,93.396,262.085z"/>
<circle style="fill:#2F4859;" cx="136.267" cy="262.11" r="19.115"/>
<circle style="fill:#D5D6DB;" cx="136.267" cy="262.11" r="12.418"/>
<circle style="fill:#2F4859;" cx="304.879" cy="262.11" r="19.115"/>
<g>
	<circle style="fill:#D5D6DB;" cx="304.879" cy="262.11" r="12.418"/>
	<path style="fill:#D5D6DB;" d="M95.218,240.617h-4.765v-9.392h4.765c1.902,0,3.444,1.542,3.444,3.444v2.505
		C98.662,239.075,97.12,240.617,95.218,240.617z"/>
</g>
<path style="fill:#E56353;" d="M330.558,258.609h4.765v-9.392h-4.765c-1.902,0-3.444,1.542-3.444,3.444v2.505
	C327.115,257.067,328.656,258.609,330.558,258.609z"/>
<circle style="fill:#2F4859;" cx="257.297" cy="262.11" r="19.115"/>
<circle style="fill:#D5D6DB;" cx="257.297" cy="262.11" r="12.418"/>
<circle style="fill:#2F4859;" cx="207.978" cy="262.11" r="19.115"/>
<circle style="fill:#D5D6DB;" cx="207.978" cy="262.11" r="12.418"/>
<rect x="211.412" y="158.652" style="fill:#3A556A;" width="38.956" height="6.895"/>
<rect x="208.247" y="155.682" style="fill:#64798A;" width="44.892" height="2.97"/>
<path style="fill:#FFFFFF;" d="M273.333,208.974c2.568,10.726-7.178,19.97-16.032,19.97c-8.854,0-18.6-9.244-16.032-19.97
	c2.061-8.605,16.032-31.555,16.032-31.555S271.273,200.369,273.333,208.974z"/>
<path style="fill:#64798A;" d="M270.559,208.829c2.124,8.869-5.935,16.514-13.257,16.514c-7.322,0-15.381-7.644-13.257-16.514
	c1.704-7.116,13.257-26.094,13.257-26.094S268.855,201.713,270.559,208.829z"/>
<g>
</g>
<g>
</g>
<g>
</g>
<g>
</g>
<g>
</g>
<g>
</g>
<g>
</g>
<g>
</g>
<g>
</g>
<g>
</g>
<g>
</g>
<g>
</g>
<g>
</g>
<g>
</g>
<g>
</g>
</svg>
