<svg enable-background="new 0 0 100 100" height="512" viewBox="0 0 100 100" width="512" xmlns="http://www.w3.org/2000/svg"><g fill="#344d5b"><path d="m33.782562 21.572205h3.825067v10.48408h-3.825067z"/><path d="m62.392372 21.572205h3.825067v10.48408h-3.825067z"/><path d="m9.643896 36.033566h80.712212v58.966435h-80.712212z"/></g><path d="m9.643896 86.253944h80.712212v8.746058h-80.712212z" fill="#467082"/><path d="m5.767908 30.264156h88.464188v9.056815h-88.464188z" fill="#304551"/><path d="m23.799936 5h52.400127v18.364334h-52.400127z" fill="#2a3f4a"/><path d="m16.781174 59.902813h22.319853v31.907814h-22.319853z" fill="#e7a14e"/><path d="m36.9947128 91.8106842h-2.1061134v-27.6957092h-13.8954163v27.6957092h-2.1061134v-29.8018188h18.1076431z" fill="#d29448"/><path d="m14.278155 91.810684h27.325892v3.189317h-27.325892z" fill="#48b29b"/><circle cx="32.312" cy="76.91" fill="#ededed" r="1.166"/><path d="m49.112286 47.17123h31.232561v31.232561h-31.232561z" fill="#4da0dc"/><g fill="#ededed"><path d="m27.2533531 18.7049656v-9.0455952h2.930872c1.1106453 0 1.8346233.045248 2.1719303.135745.5182991.135746.9522743.4308901 1.3019218.8854322s.5244713 1.0417442.5244713 1.7616081c0 .5553226-.1007805 1.0222054-.3023415 1.4006472-.201561.3784428-.4576263.675643-.7681961.8916025-.3105698.2159586-.6262817.3589029-.9471359.428833-.4360294.0863829-1.0674534.1295748-1.8942661.1295748h-1.1908607v3.4121523h-1.8263951zm1.8263951-7.5153723v2.5668268h.9995823c.7198639 0 1.2011433-.0473051 1.44384-.1419163.2426968-.0946102.4329453-.2426968.5707474-.4442587.1378021-.201561.2067032-.4360313.2067032-.7034082 0-.3290806-.0966644-.6005716-.2900009-.8144741-.1933346-.2139025-.4380875-.3475914-.7342606-.4010668-.2180157-.0411348-.6561031-.0617027-1.3142643-.0617027z"/><path d="m35.3117065 14.2376995c0-.9214249.1378021-1.6947632.4134064-2.3200159.205677-.4607124.4864235-.8741198.8422394-1.240221.3558197-.3661022.745575-.6375933 1.1692657-.8144741.563549-.2385826 1.2134819-.3578749 1.9497986-.3578749 1.3327751 0 2.3992043.4134073 3.1992798 1.240222.8000755.8268137 1.2001152 1.9765377 1.2001152 3.449172 0 1.4602938-.3969536 2.6028194-1.1908607 3.427578-.7939072.8247566-1.8551903 1.2371349-3.1838531 1.2371349-1.3451157 0-2.4146271-.4103222-3.2085304-1.2309647-.7939073-.8206443-1.1908609-1.9508295-1.1908609-3.3905563zm1.8819275-.0617027c0 1.0242624.2365265 1.8006868.7095795 2.3292713.473053.5285854 1.0736237.7928791 1.8017159.7928791.7280884 0 1.3255768-.2622356 1.7924576-.7867088.4668846-.5244713.700325-1.3111792.700325-2.3601217 0-1.036603-.227272-1.8099422-.6818123-2.3200169-.4545441-.5100737-1.0582008-.765111-1.8109703-.765111-.7527733 0-1.3595123.2581224-1.8202248.7743664-.4607124.5162449-.6910706 1.2947254-.6910706 2.3354416z"/><path d="m45.5605011 18.7049656v-8.9715519h1.8263969v7.4474983h4.5413055v1.5240536z"/><path d="m53.1745949 18.7049656v-9.0455952h1.8263969v9.0455952z"/><path d="m62.5287018 15.3791971 1.7708664.5614929c-.271492.9872408-.72295 1.7204733-1.3543739 2.1996965-.6314201.4792233-1.4325256.7188339-2.4033127.7188339-1.2011414 0-2.188385-.4103222-2.9617233-1.2309647-.7733383-.8206444-1.1600075-1.9426031-1.1600075-3.3658752 0-1.5055418.3887253-2.6748056 1.1661797-3.5077896.7774506-.8329849 1.7996559-1.2494774 3.0666161-1.2494774 1.1065331 0 2.0053329.3270235 2.6963997.9810705.4113503.3866701.7198677.9419928.9255409 1.6659689l-1.8078842.4319181c-.1069527-.4689388-.3301086-.8391542-.6694756-1.1106462-.3393631-.2714911-.7517433-.4072361-1.2371368-.4072361-.6704979 0-1.2145119.2406397-1.6320305.72192-.4175224.4812794-.6262817 1.260788-.6262817 2.3385267 0 1.1435537.205677 1.9580278.6170273 2.4434214s.946106.7280903 1.6042633.7280903c.4853935 0 .902916-.1542568 1.2525635-.4627705.3496473-.3085116.6005705-.7939051.7527693-1.4561795z"/><path d="m65.8668137 18.7049656v-9.0455952h6.7070694v1.5302229h-4.8806763v2.0053329h4.5413055v1.5240536h-4.5413055v2.4619322h5.0534363v1.5240536z"/></g><path d="m80.292778 47.1745377-31.1809997 31.18087v-8.6985168l22.4827423-22.4823532z" fill="#fff" opacity=".1"/><path d="m80.3453522 51.5657005v4.3598023l-22.4826088 22.4828682h-4.3598023z" fill="#fff" opacity=".1"/><path d="m81.134758 79.1935196h-32.8123894v-32.81213h32.8123894zm-31.2328033-1.5795822h29.6532211v-29.6529618h-29.6532211z" fill="#ededed"/><path d="m45.732887 77.600273h37.991356v5.123463h-37.991356z" fill="#2a3f4a"/></svg>