<svg xmlns="http://www.w3.org/2000/svg" width="265" height="265" viewBox="0 0 265 265">
  <g id="Group_14" data-name="Group 14" transform="translate(-593 -275)">
    <circle id="Ellipse_2" data-name="Ellipse 2" cx="132.5" cy="132.5" r="132.5" transform="translate(593 275)" fill="#db649c"/>
    <g id="car" transform="translate(628 256.182)">
      <path id="Path_11" data-name="Path 11" d="M462.987,158.594a3.431,3.431,0,0,0-3.341-2.659h-8.5a3.433,3.433,0,0,0-3.433,3.433,3.433,3.433,0,0,1-3.433,3.433h-1.329c.524,1.268,1.049,2.567,1.585,3.927l.024.024h15.982a3.429,3.429,0,0,0,3.341-4.2Z" transform="translate(-268.869 -40.74)" fill="#cacaca"/>
      <path id="Path_12" data-name="Path 12" d="M389.175,370.743v9.146a5.35,5.35,0,0,0,5.348,5.348h13.061a5.35,5.35,0,0,0,5.348-5.348v-9.146Z" transform="translate(-236.227 -171.127)" fill="#454545"/>
      <path id="Path_13" data-name="Path 13" d="M19.7,162.786a3.433,3.433,0,0,1-3.433-3.433,3.433,3.433,0,0,0-3.433-3.433H4.338A3.43,3.43,0,0,0,1,158.579L.088,162.53a3.434,3.434,0,0,0,3.341,4.2H19.417l.024-.024c.536-1.366,1.061-2.665,1.585-3.927H19.7v.006Z" transform="translate(0 -40.73)" fill="#cacaca"/>
      <path id="Path_14" data-name="Path 14" d="M190.612,125.989c-4.89-12.494-9.36-20.835-13.049-26.372a24.4,24.4,0,0,0-20.329-10.8H67.758a24.4,24.4,0,0,0-20.335,10.8c-3.677,5.537-8.153,13.872-13.043,26.372-5.86,4.61-10.36,13.9-9.707,23.683.8,11.976,2.836,36.792,6.408,48.872a1.487,1.487,0,0,0,1.421,1.073H58.959a1.483,1.483,0,0,0,1.482-1.482,1.483,1.483,0,0,1,1.482-1.482h101.14a1.483,1.483,0,0,1,1.482,1.482,1.479,1.479,0,0,0,1.482,1.482h26.457a1.476,1.476,0,0,0,1.421-1.073c3.585-12.079,5.61-36.9,6.408-48.872C200.984,139.824,196.441,130.568,190.612,125.989Z" transform="translate(-14.938)" fill="#e5e5e5"/>
      <path id="Path_15" data-name="Path 15" d="M207.4,131.093c-4.1-10.061-8.287-18.506-12.451-24.835a21.351,21.351,0,0,0-17.793-9.683H87.679a21.4,21.4,0,0,0-17.8,9.683c-4.177,6.366-8.36,14.811-12.451,24.842A955.445,955.445,0,0,0,207.4,131.093Z" transform="translate(-34.859 -4.708)" fill="#168de2"/>
      <path id="Path_16" data-name="Path 16" d="M46.833,370.743v9.146a5.35,5.35,0,0,0,5.348,5.348H65.241a5.35,5.35,0,0,0,5.348-5.348v-9.146Z" transform="translate(-28.428 -171.127)" fill="#454545"/>
      <path id="Path_17" data-name="Path 17" d="M379.667,218.743s13.61-.232,16.75-2.5c0,0,5.232,17.969-13.086,17.1s-22.829.031-22.829.031C360.5,226.231,363.752,219.6,379.667,218.743Z" transform="translate(-218.823 -77.346)" fill="#ed6262"/>
      <path id="Path_18" data-name="Path 18" d="M283.553,227.336H259.529a5.816,5.816,0,0,0-5.817,5.817v8.6a5.816,5.816,0,0,0,5.817,5.817H275.6A13.772,13.772,0,0,0,289.37,233.8C289.371,229.574,286.675,227.336,283.553,227.336Z" transform="translate(-154.002 -84.079)" fill="#6f6f6f"/>
      <circle id="Ellipse_15" data-name="Ellipse 15" cx="6.171" cy="6.171" r="6.171" transform="translate(160.241 142.178)" fill="#ffbd49"/>
      <g id="Group_5" data-name="Group 5" transform="translate(102.461 143.232)">
        <path id="Path_19" data-name="Path 19" d="M334.77,228.469V242.31a12.609,12.609,0,0,1-1.744,1.908V227.755A5.46,5.46,0,0,1,334.77,228.469Z" transform="translate(-304.605 -227.566)" fill="#777"/>
        <path id="Path_20" data-name="Path 20" d="M322.714,227.312v18.713a11.981,11.981,0,0,1-1.744.756V227.306h1.744Z" transform="translate(-297.287 -227.293)" fill="#777"/>
        <path id="Path_21" data-name="Path 21" d="M310.659,227.321v20.153a13.086,13.086,0,0,1-1.555.085h-.189V227.321Z" transform="translate(-289.97 -227.303)" fill="#777"/>
        <rect id="Rectangle_8" data-name="Rectangle 8" width="1.744" height="20.238" transform="translate(14.213)" fill="#777"/>
        <rect id="Rectangle_9" data-name="Rectangle 9" width="1.744" height="20.238" transform="translate(9.469)" fill="#777"/>
        <rect id="Rectangle_10" data-name="Rectangle 10" width="1.744" height="20.238" transform="translate(4.731)" fill="#777"/>
        <path id="Path_22" data-name="Path 22" d="M262.454,227.755v19.921a5.51,5.51,0,0,1-1.744-.725V228.475A5.228,5.228,0,0,1,262.454,227.755Z" transform="translate(-260.71 -227.566)" fill="#777"/>
      </g>
      <path id="Path_23" data-name="Path 23" d="M60.263,218.743s-13.61-.232-16.75-2.5c0,0-5.238,17.969,13.086,17.1s22.835.031,22.835.031C79.427,226.231,76.177,219.6,60.263,218.743Z" transform="translate(-25.991 -77.346)" fill="#ed6262"/>
      <path id="Path_24" data-name="Path 24" d="M157.828,227.336h24.025a5.816,5.816,0,0,1,5.817,5.817v8.6a5.816,5.816,0,0,1-5.817,5.817H165.786A13.771,13.771,0,0,1,152.011,233.8C152.017,229.574,154.712,227.336,157.828,227.336Z" transform="translate(-92.27 -84.079)" fill="#6f6f6f"/>
      <path id="Path_25" data-name="Path 25" d="M204.822,306a18.311,18.311,0,0,0-17.677-13.543H63.853A18.311,18.311,0,0,0,46.176,306a4.133,4.133,0,0,0,3.988,5.207H200.84A4.127,4.127,0,0,0,204.822,306Z" transform="translate(-27.941 -123.606)" fill="#454545"/>
      <circle id="Ellipse_16" data-name="Ellipse 16" cx="6.171" cy="6.171" r="6.171" transform="translate(22.534 142.178)" fill="#ffbd49"/>
      <path id="Path_26" data-name="Path 26" d="M216.578,308.052H100.267l3.5-3h109.3Z" transform="translate(-60.862 -131.253)" fill="#e5e5e5"/>
      <circle id="Ellipse_17" data-name="Ellipse 17" cx="4.415" cy="4.415" r="4.415" transform="translate(23.722 175.098)" fill="#ed6262"/>
      <g id="Group_6" data-name="Group 6" transform="translate(62.491 143.232)">
        <path id="Path_27" data-name="Path 27" d="M159.007,228.469V242.31a12.608,12.608,0,0,0,1.744,1.908V227.755A5.405,5.405,0,0,0,159.007,228.469Z" transform="translate(-159.007 -227.566)" fill="#777"/>
        <path id="Path_28" data-name="Path 28" d="M171.063,227.312v18.713a11.979,11.979,0,0,0,1.744.756V227.306h-1.744Z" transform="translate(-166.325 -227.293)" fill="#777"/>
        <path id="Path_29" data-name="Path 29" d="M183.118,227.321v20.153a13.085,13.085,0,0,0,1.555.085h.189V227.321Z" transform="translate(-173.642 -227.303)" fill="#777"/>
        <rect id="Rectangle_11" data-name="Rectangle 11" width="1.744" height="20.238" transform="translate(14.213)" fill="#777"/>
        <rect id="Rectangle_12" data-name="Rectangle 12" width="1.744" height="20.238" transform="translate(18.952)" fill="#777"/>
        <rect id="Rectangle_13" data-name="Rectangle 13" width="1.744" height="20.238" transform="translate(23.689)" fill="#777"/>
        <path id="Path_30" data-name="Path 30" d="M231.324,227.755v19.921a5.506,5.506,0,0,0,1.744-.725V228.475A5.232,5.232,0,0,0,231.324,227.755Z" transform="translate(-202.903 -227.566)" fill="#777"/>
      </g>
      <circle id="Ellipse_18" data-name="Ellipse 18" cx="4.415" cy="4.415" r="4.415" transform="translate(162.564 175.098)" fill="#ed6262"/>
      <path id="Path_31" data-name="Path 31" d="M155.581,120.2V105.669a4.284,4.284,0,0,1,4.305-4.244h.347a4.05,4.05,0,0,1,4.3,4.012v14.219a5.294,5.294,0,0,0,4.768,5.409,5.157,5.157,0,0,0,5.409-5.116V109.34a4.271,4.271,0,0,1,4.244-4.244h.347a4.531,4.531,0,0,1,4.536,4.476v8.158a5.281,5.281,0,0,0,4.823,5.348,5.107,5.107,0,0,0,5.409-5.055v-9.378a4.29,4.29,0,0,1,4.476-4.244h.171a4.282,4.282,0,0,1,4.476,4.244v10.372a5.344,5.344,0,0,0,4.823,5.409,5.106,5.106,0,0,0,5.348-5.116V108.736c-.5-.817-1-1.707-1.5-2.463a21.351,21.351,0,0,0-17.793-9.683H104.587a21.345,21.345,0,0,0-17.793,9.677c-.5.756-1,1.64-1.5,2.463v9.006a5.287,5.287,0,0,0,4.884,5.348,5.055,5.055,0,0,0,5.348-5.055v-9.384a4.306,4.306,0,0,1,4.536-4.244h.116a4.335,4.335,0,0,1,4.536,4.244v10.372a5.3,5.3,0,0,0,4.768,5.409,5.141,5.141,0,0,0,5.378-4.982V105.59a5.114,5.114,0,0,1,5.366-5.1,5.3,5.3,0,0,1,4.8,5.366v13.225a5.3,5.3,0,0,0,4.8,5.2,5.106,5.106,0,0,0,5.348-5.116l.061-11.268a5.105,5.105,0,0,1,5.348-5.116,5.339,5.339,0,0,1,4.823,5.409v12.2a5.087,5.087,0,0,0,10.171-.177Z" transform="translate(-51.773 -4.718)" fill="#1f9ae5"/>
    </g>
  </g>
</svg>
