<?xml version="1.0" encoding="iso-8859-1"?>
<!-- Generator: Adobe Illustrator 19.0.0, SVG Export Plug-In . SVG Version: 6.00 Build 0)  -->
<svg version="1.1" id="Capa_1" xmlns="http://www.w3.org/2000/svg" xmlns:xlink="http://www.w3.org/1999/xlink" x="0px" y="0px"
	 viewBox="0 0 436.907 436.907" style="enable-background:new 0 0 436.907 436.907;" xml:space="preserve">
<circle style="fill:#EA8953;" cx="218.453" cy="218.453" r="218.453"/>
<path style="opacity:0.1;enable-background:new    ;" d="M424.788,290.204l-98.511-98.511c-1.16-1.843-3.209-2.97-5.393-2.97h1.707
	l-14.85-10.924l-36.931-36.931H90.45v133.598l160.076,160.076C331.809,422.58,398.484,365.851,424.788,290.204z"/>
<polygon style="fill:#64798A;" points="270.807,150.633 322.588,188.713 270.807,188.713 "/>
<rect x="90.453" y="140.868" style="fill:#44C4A1;" width="180.354" height="133.598"/>
<rect x="90.453" y="207.155" style="fill:#3EA69B;" width="180.354" height="67.338"/>
<path style="fill:#FCD462;" d="M270.807,188.713h50.078c2.198,0,4.242,1.132,5.408,2.995l18.913,30.216
	c0.815,1.302,1.247,2.806,1.247,4.341v45.381c0,1.571-1.273,2.844-2.844,2.844h-72.802V188.713z"/>
<polygon style="fill:#2D93BA;" points="280.533,197.797 314.596,197.797 328.341,218.393 328.341,236.263 280.533,236.263 "/>
<polygon style="fill:#27A2DB;" points="328.341,218.393 314.596,197.797 280.533,197.797 280.533,209.87 "/>
<g>
	<rect x="90.453" y="256.068" style="fill:#64798A;" width="180.354" height="18.422"/>
	<path style="fill:#64798A;" d="M343.811,274.478h-77.555v-18.42h80.197v15.778C346.453,273.296,345.271,274.478,343.811,274.478z"
		/>
</g>
<circle style="fill:#2F4859;" cx="294.81" cy="274.5" r="21.542"/>
<circle style="fill:#D5D6DB;" cx="294.81" cy="274.5" r="13.995"/>
<circle style="fill:#2F4859;" cx="143.462" cy="274.5" r="21.542"/>
<circle style="fill:#D5D6DB;" cx="143.462" cy="274.5" r="13.995"/>
<path style="fill:#DC8744;" d="M341.084,250.285h5.37V239.7h-5.37c-2.143,0-3.881,1.738-3.881,3.881v2.823
	C337.203,248.547,338.94,250.285,341.084,250.285z"/>
<path style="fill:#E56353;" d="M95.823,250.285h-5.37V239.7h5.37c2.143,0,3.881,1.738,3.881,3.881v2.823
	C99.704,248.547,97.966,250.285,95.823,250.285z"/>
<g>
</g>
<g>
</g>
<g>
</g>
<g>
</g>
<g>
</g>
<g>
</g>
<g>
</g>
<g>
</g>
<g>
</g>
<g>
</g>
<g>
</g>
<g>
</g>
<g>
</g>
<g>
</g>
<g>
</g>
</svg>
