<svg id="Capa_1" enable-background="new 0 0 510.646 510.646" height="512" viewBox="0 0 510.646 510.646" width="512" xmlns="http://www.w3.org/2000/svg"><g><g><path d="m495.53 283.323h-176c-8.284 0-15 6.716-15 15v176c0 8.284 6.716 15 15 15h176c8.284 0 15-6.716 15-15v-176c0-8.284-6.716-15-15-15z" fill="#fff5f5"/><path d="m495.53 283.323h-88v206h88c8.284 0 15-6.716 15-15v-176c0-8.284-6.716-15-15-15z" fill="#eee1dd"/><circle cx="407.53" cy="386.323" fill="#fce000" r="48.331"/><path d="m407.53 337.992v96.661c26.649 0 48.331-21.681 48.331-48.331s-21.682-48.33-48.331-48.33z" fill="#fdbf00"/><g><path d="m440.161 253.435c-3.117 0-6.261-.968-8.953-2.975-10.91-8.131-36.238-8.208-46.727-.137-6.565 5.051-15.984 3.824-21.035-2.743-5.052-6.566-3.823-15.984 2.742-21.035 21.03-16.178 61.341-16.244 82.949-.137 6.642 4.951 8.013 14.349 3.062 20.991-2.945 3.95-7.463 6.036-12.038 6.036z" fill="#fce000"/><path d="m431.208 250.46c2.692 2.007 5.836 2.975 8.953 2.975 4.575 0 9.094-2.086 12.038-6.036 4.951-6.642 3.58-16.04-3.062-20.991-10.732-8-26.078-12.005-41.384-12.034v29.943c8.985.037 18.013 2.088 23.455 6.143z" fill="#fdbf00"/><path d="m407.691 160.456c26.814.066 51.574 6.939 67.931 18.856 6.695 4.878 8.169 14.261 3.29 20.957-2.936 4.03-7.504 6.168-12.136 6.168-3.063 0-6.154-.935-8.82-2.877-23.812-17.348-77.205-17.415-100.231-.128-6.626 4.974-16.027 3.634-21.001-2.99-4.975-6.625-3.636-16.028 2.989-21.001 16.081-12.073 40.699-18.984 67.589-18.984" fill="#fce000"/><path d="m407.754 160.457v30.053c19.134.055 38.339 4.406 50.202 13.049 2.666 1.942 5.757 2.877 8.82 2.877 4.632 0 9.2-2.138 12.136-6.168 4.879-6.696 3.405-16.078-3.29-20.957-16.344-11.906-41.078-18.777-67.868-18.854" fill="#fdbf00"/></g></g><g><path d="m232.591 0h-186.524c-25.338 0-45.951 20.614-45.951 45.952v418.742c0 25.338 20.614 45.952 45.952 45.952h186.524c25.338 0 45.952-20.614 45.952-45.952v-418.742c-.001-25.338-20.615-45.952-45.953-45.952z" fill="#fff5f5"/><path d="m232.591 0h-93.262v510.646h93.262c25.338 0 45.952-20.614 45.952-45.952v-418.742c0-25.338-20.614-45.952-45.952-45.952z" fill="#eee1dd"/><circle cx="139.329" cy="459.265" fill="#eee1dd" r="17.224"/><path d="m139.329 476.489c9.513 0 17.224-7.712 17.224-17.224s-7.712-17.224-17.224-17.224z" fill="#c4b4af"/><path d="m.116 70.643v337.242h278.427v-337.242z" fill="#555a6e"/><path d="m139.329 70.643h139.214v337.242h-139.214z" fill="#463c4b"/><path d="m177.991 145.051c-18.057-9.344-35.592-10.211-37.532-10.279l-.526-.009c-19.346 0-38.664 7.274-53 19.957-16.467 14.568-25.535 35.5-25.535 58.94 0 30.444 19.498 66.743 27.881 80.937 7.336 12.42 15.44 23.813 22.819 32.08 10.549 11.817 19.134 17.086 27.834 17.086 8.62 0 17.415-5.391 27.679-16.965 7.419-8.366 15.182-19.445 22.449-32.041 8.179-14.175 27.201-50.606 27.201-82.673 0-38.607-21.356-57.762-39.27-67.033z" fill="#ff6f2f"/><path d="m139.329 343.741c.201.006.402.023.603.023 8.62 0 17.415-5.391 27.679-16.965 7.419-8.366 15.182-19.445 22.449-32.041 8.179-14.175 27.201-50.606 27.201-82.673 0-38.608-21.355-57.763-39.27-67.034-18.057-9.344-35.592-10.211-37.532-10.279l-.526-.009c-.201 0-.402.012-.603.014v208.964z" fill="#ff4a00"/><path d="m139.329 251.104c-19.813 0-35.933-16.12-35.933-35.934s16.119-35.935 35.933-35.935 35.934 16.12 35.934 35.935-16.12 35.934-35.934 35.934z" fill="#fff5f5"/><path d="m139.329 179.236c19.814 0 35.934 16.12 35.934 35.935 0 19.814-16.12 35.934-35.934 35.934z" fill="#eee1dd"/></g></g></svg>