<svg id="icon" height="512" viewBox="0 0 128 128" width="512" xmlns="http://www.w3.org/2000/svg"><path d="m24.325 47.991h13.914v46.716h-13.914z" fill="#dbd8dd"/><path d="m89.761 47.991h13.914v46.716h-13.914z" fill="#dbd8dd"/><path d="m34.992 36.86h58.016v57.847h-58.016z" fill="#eeefee"/><path d="m54.078 22.805h19.845v15.628h-19.845z" fill="#eeefee"/><path d="m69.257 28.287v3.036h-3.626v3.626h-3.036v-3.626h-3.626v-3.036h3.626v-3.626h3.036v3.626z" fill="#ef5261"/><g fill="#69b0ee"><path d="m41.225 43.648h7.168v6.409h-7.168z"/><path d="m54.019 43.648h7.168v6.409h-7.168z"/><path d="m66.813 43.648h7.168v6.409h-7.168z"/><path d="m79.607 43.648h7.168v6.409h-7.168z"/><path d="m41.225 54.315h7.168v6.409h-7.168z"/><path d="m54.019 54.315h7.168v6.409h-7.168z"/><path d="m66.813 54.315h7.168v6.409h-7.168z"/><path d="m79.607 54.315h7.168v6.409h-7.168z"/><path d="m41.225 64.982h7.168v6.409h-7.168z"/><path d="m54.019 64.982h7.168v6.409h-7.168z"/><path d="m66.813 64.982h7.168v6.409h-7.168z"/><path d="m79.607 64.982h7.168v6.409h-7.168z"/></g><path d="m51.097 77.167h26.098v17.54h-26.098z" fill="#dbd8dd"/><rect fill="#575b6d" height="2.614" rx=".415" width="29.233" x="49.384" y="75.228"/><path d="m63.68 77.842h.931v16.865h-.931z" fill="#bbbbcd"/><rect fill="#575b6d" height="4.511" rx=".675" width="85" x="21.5" y="92.683"/><g fill="#eeefee" opacity=".45"><path d="m80.907 50.057h-.381l2.741-6.409h.38z"/><path d="m83.115 50.057h-1.274l2.74-6.409h1.275z"/><path d="m68.113 50.057h-.381l2.741-6.409h.38z"/><path d="m70.321 50.057h-1.274l2.74-6.409h1.275z"/><path d="m55.319 50.057h-.381l2.741-6.409h.38z"/><path d="m57.527 50.057h-1.274l2.74-6.409h1.275z"/><path d="m42.525 50.057h-.381l2.741-6.409h.38z"/><path d="m44.733 50.057h-1.274l2.74-6.409h1.275z"/></g><g fill="#eeefee" opacity=".45"><path d="m80.907 60.724h-.381l2.741-6.409h.38z"/><path d="m83.115 60.724h-1.274l2.74-6.409h1.275z"/><path d="m68.113 60.724h-.381l2.741-6.409h.38z"/><path d="m70.321 60.724h-1.274l2.74-6.409h1.275z"/><path d="m55.319 60.724h-.381l2.741-6.409h.38z"/><path d="m57.527 60.724h-1.274l2.74-6.409h1.275z"/><path d="m42.525 60.724h-.381l2.741-6.409h.38z"/><path d="m44.733 60.724h-1.274l2.74-6.409h1.275z"/></g><g fill="#eeefee" opacity=".45"><path d="m80.907 71.391h-.381l2.741-6.409h.38z"/><path d="m83.115 71.391h-1.274l2.74-6.409h1.275z"/><path d="m68.113 71.391h-.381l2.741-6.409h.38z"/><path d="m70.321 71.391h-1.274l2.74-6.409h1.275z"/><path d="m55.319 71.391h-.381l2.741-6.409h.38z"/><path d="m57.527 71.391h-1.274l2.74-6.409h1.275z"/><path d="m42.525 71.391h-.381l2.741-6.409h.38z"/><path d="m44.733 71.391h-1.274l2.74-6.409h1.275z"/></g></svg>