<?xml version="1.0" encoding="iso-8859-1"?>
<!-- Generator: Adobe Illustrator 19.0.0, SVG Export Plug-In . SVG Version: 6.00 Build 0)  -->
<svg version="1.1" id="Capa_1" xmlns="http://www.w3.org/2000/svg" xmlns:xlink="http://www.w3.org/1999/xlink" x="0px" y="0px"
	 viewBox="0 0 436.907 436.907" style="enable-background:new 0 0 436.907 436.907;" xml:space="preserve">
<circle style="fill:#45B39C;" cx="218.453" cy="218.453" r="218.453"/>
<path style="opacity:0.1;enable-background:new    ;" d="M91.13,249.556l0.087,0.087c0.055,0.061,0.11,0.115,0.17,0.17
	L271.875,430.3c76.985-19.354,137.731-79.55,157.862-156.224l-86.272-86.272c-0.19-0.205-0.385-0.4-0.591-0.591l-0.29-0.29
	l-0.053,0.008c-1.951-1.669-4.456-2.714-7.235-2.714H185.52l-19.422-19.422h-50.074c-2.185,0-4.233,1.126-5.427,3.004l-18.91,30.208
	c-0.785,1.297-1.229,2.799-1.229,4.335v45.397c0,0.701,0.28,1.32,0.699,1.813L91.13,249.556z"/>
<path style="fill:#64798A;" d="M172.755,250.56h173.699v-55.2c0-6.16-4.994-11.154-11.154-11.154H185.279
	c-6.917,0-12.524,5.607-12.524,12.524V250.56z"/>
<path style="fill:#FCD462;" d="M166.1,164.794h-50.078c-2.198,0-4.242,1.132-5.408,2.995L91.7,198.005
	c-0.815,1.301-1.247,2.806-1.247,4.341v45.381c0,1.571,1.273,2.844,2.844,2.844H166.1V164.794z"/>
<polygon style="fill:#2D93BA;" points="146.03,173.878 122.31,173.878 108.566,194.474 108.566,212.344 146.03,212.344 "/>
<polygon style="fill:#27A2DB;" points="108.566,194.474 122.31,173.878 146.03,173.878 146.03,185.951 "/>
<rect x="166.093" y="232.151" style="fill:#F6C358;" width="180.354" height="18.422"/>
<path style="fill:#64798A;" d="M93.396,250.56h18.639v-19.383H90.453v16.44C90.453,249.242,91.771,250.56,93.396,250.56z"/>
<circle style="fill:#2F4859;" cx="142.083" cy="250.573" r="21.542"/>
<circle style="fill:#D5D6DB;" cx="142.083" cy="250.573" r="13.995"/>
<circle style="fill:#2F4859;" cx="293.444" cy="250.573" r="21.542"/>
<g>
	<circle style="fill:#D5D6DB;" cx="293.444" cy="250.573" r="13.995"/>
	<path style="fill:#D5D6DB;" d="M95.823,226.366h-5.37v-10.585h5.37c2.143,0,3.881,1.738,3.881,3.881v2.823
		C99.704,224.628,97.966,226.366,95.823,226.366z"/>
</g>
<path style="fill:#E56353;" d="M341.084,226.366h5.37v-10.585h-5.37c-2.143,0-3.881,1.738-3.881,3.881v2.823
	C337.203,224.628,338.94,226.366,341.084,226.366z"/>
<g>
</g>
<g>
</g>
<g>
</g>
<g>
</g>
<g>
</g>
<g>
</g>
<g>
</g>
<g>
</g>
<g>
</g>
<g>
</g>
<g>
</g>
<g>
</g>
<g>
</g>
<g>
</g>
<g>
</g>
</svg>
