<?xml version="1.0" encoding="iso-8859-1"?>
<!-- Generator: Adobe Illustrator 19.0.0, SVG Export Plug-In . SVG Version: 6.00 Build 0)  -->
<svg version="1.1" id="Capa_1" xmlns="http://www.w3.org/2000/svg" xmlns:xlink="http://www.w3.org/1999/xlink" x="0px" y="0px"
	 viewBox="0 0 436.907 436.907" style="enable-background:new 0 0 436.907 436.907;" xml:space="preserve">
<circle style="fill:#E05B49;" cx="218.453" cy="218.453" r="218.453"/>
<path style="opacity:0.1;enable-background:new    ;" d="M257.513,135.612c-7.919,0-14.37,6.451-14.37,14.37v30.413l-37.854-37.854
	h-15.77c-1.911,0-3.447,1.536-3.447,3.413c0,0.876,0.357,1.659,0.908,2.265l-0.02,0.002l0.068,0.068
	c0.042,0.044,0.081,0.084,0.125,0.125l11.276,11.276v25.278h-27.921c-9.098,0-16.816,5.848-19.682,13.974l-10.424-10.424
	l-15.053-9.796L90.43,263.646l169.311,169.312c91.924-17.592,163.338-92.765,175.324-186.558L324.278,135.612H257.513z"/>
<g>
	<path style="fill:#F6C358;" d="M198.433,192.992h6.843v-50.464h-15.77c-1.89,0-3.421,1.532-3.421,3.421v0
		c0,1.89,1.532,3.421,3.421,3.421h8.927V192.992z"/>
	<path style="fill:#F6C358;" d="M149.61,240.907h97.799v-55.925h-76.889c-11.549,0-20.911,9.362-20.911,20.911V240.907z"/>
</g>
<path style="fill:#DC8744;" d="M241.951,239.26l-5.905,15.186H153.73c-3.632,0-6.576-3.4-6.576-7.593v0
	c0-4.194,2.944-7.593,6.576-7.593H241.951z"/>
<path style="fill:#27A2DB;" d="M243.148,233.312l81.117-17.628v-80.063h-66.754c-7.933,0-14.363,6.431-14.363,14.363V233.312z"/>
<path style="fill:#1C75A1;" d="M340.676,231.194c-1.769-19.651-27.577-40.504-38.599-35.11
	c-21.566,10.554-83.598,49.832-83.598,49.832h-44.477l-0.453,25.489h38.054c9.065,0,17.921-2.723,25.42-7.816l61.863-42.012
	c6.387-4.338,14.971-3.442,20.324,2.122l11.437,11.885c1.836,1.908,4.73,2.336,7.04,1.041h0
	C339.637,235.532,340.877,233.419,340.676,231.194z"/>
<rect x="289.406" y="143.558" style="fill:#EBF0F3;" width="26.156" height="25.88"/>
<g>
	<path style="fill:#D5D6DB;" d="M249.687,189.76h29.427v-46.213h-11.223c-10.054,0-18.204,8.15-18.204,18.204V189.76z"/>
	<rect x="289.396" y="143.558" style="fill:#D5D6DB;" width="13.196" height="25.88"/>
</g>
<path style="fill:#EBF0F3;" d="M249.687,189.76v-31.266c0-8.255,6.692-14.947,14.947-14.947h14.48L249.687,189.76z"/>
<rect x="302.483" y="176.261" style="fill:#3A556A;" width="12.09" height="3.792"/>
<rect x="304.736" y="176.961" style="fill:#2F4859;" width="7.55" height="2.369"/>
<path style="fill:#E1E6E9;" d="M154.01,216.555h16.119v-19.952h-4.492c-6.421,0-11.627,5.205-11.627,11.627V216.555z"/>
<rect x="154.003" y="219.795" style="fill:#E56353;" width="16.118" height="5.28"/>
<circle style="fill:#2F4859;" cx="294.571" cy="255.215" r="41.199"/>
<circle style="fill:#D5D6DB;" cx="294.571" cy="255.215" r="26.771"/>
<g>
	<circle style="fill:#2F4859;" cx="294.571" cy="255.215" r="12.776"/>
	<path style="fill:#2F4859;" d="M292.372,220.714h8.104v-11.881c0-1.963-1.592-3.555-3.555-3.555h-0.993
		c-1.963,0-3.555,1.592-3.555,3.555V220.714z"/>
	<path style="fill:#2F4859;" d="M322.792,231.195l4.236,6.908l10.128-6.211c1.674-1.026,2.199-3.215,1.172-4.889l-0.519-0.847
		c-1.026-1.674-3.215-2.199-4.889-1.172L322.792,231.195z"/>
	<path style="fill:#2F4859;" d="M269.822,231.195l-4.236,6.908l-10.128-6.211c-1.674-1.026-2.199-3.215-1.172-4.889l0.519-0.847
		c1.026-1.674,3.215-2.199,4.889-1.172L269.822,231.195z"/>
	<path style="fill:#2F4859;" d="M331.142,261.518l-0.253,8.1l11.875,0.37c1.963,0.061,3.603-1.48,3.664-3.443l0.031-0.993
		c0.061-1.963-1.48-3.603-3.443-3.664L331.142,261.518z"/>
	<path style="fill:#2F4859;" d="M261.205,271.649l-0.52-8.087l-11.856,0.762c-1.959,0.126-3.446,1.816-3.32,3.776l0.064,0.991
		c0.126,1.959,1.816,3.446,3.776,3.32L261.205,271.649z"/>
	<path style="fill:#2F4859;" d="M316.369,281.975l-5.931,5.523l8.097,8.694c1.338,1.437,3.588,1.517,5.025,0.179l0.727-0.677
		c1.437-1.338,1.517-3.588,0.179-5.025L316.369,281.975z"/>
	<path style="fill:#2F4859;" d="M288.868,290.381l-6.473-4.876l-7.149,9.489c-1.181,1.568-0.868,3.797,0.7,4.979l0.793,0.598
		c1.568,1.181,3.797,0.868,4.979-0.7L288.868,290.381z"/>
	<circle style="fill:#2F4859;" cx="173.203" cy="261.734" r="27.546"/>
</g>
<circle style="fill:#D5D6DB;" cx="173.203" cy="261.734" r="17.893"/>
<g>
	<circle style="fill:#2F4859;" cx="173.203" cy="261.734" r="8.537"/>
	<path style="fill:#2F4859;" d="M171.73,238.673h5.416v-8.133c0-1.206-0.978-2.183-2.183-2.183h-1.049
		c-1.206,0-2.183,0.978-2.183,2.183V238.673z"/>
	<path style="fill:#2F4859;" d="M192.061,245.678l2.831,4.617l6.933-4.252c1.028-0.63,1.35-1.975,0.72-3.003l-0.548-0.894
		c-0.63-1.028-1.975-1.35-3.003-0.72L192.061,245.678z"/>
	<path style="fill:#2F4859;" d="M156.659,245.678l-2.831,4.617l-6.933-4.252c-1.028-0.63-1.35-1.975-0.72-3.003l0.548-0.894
		c0.63-1.028,1.975-1.35,3.003-0.72L156.659,245.678z"/>
	<path style="fill:#2F4859;" d="M197.641,265.944l-0.169,5.413l8.129,0.253c1.205,0.038,2.213-0.909,2.25-2.114l0.033-1.049
		c0.038-1.205-0.909-2.213-2.114-2.25L197.641,265.944z"/>
	<path style="fill:#2F4859;" d="M150.899,272.714l-0.347-5.405l-8.116,0.521c-1.203,0.077-2.116,1.116-2.039,2.319l0.067,1.047
		c0.077,1.203,1.116,2.116,2.319,2.039L150.899,272.714z"/>
	<path style="fill:#2F4859;" d="M187.768,279.616l-3.964,3.691l5.543,5.952c0.822,0.883,2.203,0.932,3.086,0.11l0.768-0.715
		c0.882-0.822,0.932-2.203,0.11-3.086L187.768,279.616z"/>
	<path style="fill:#2F4859;" d="M169.388,285.234l-4.326-3.259l-4.894,6.496c-0.726,0.963-0.533,2.332,0.43,3.058l0.838,0.631
		c0.963,0.726,2.332,0.533,3.058-0.43L169.388,285.234z"/>
</g>
<g>
	
		<rect x="138.877" y="223.391" transform="matrix(-0.496 0.8683 -0.8683 -0.496 416.0873 224.9309)" style="fill:#F6C358;" width="7.779" height="19.654"/>
	<polygon style="fill:#F6C358;" points="125.36,178.715 140.411,188.517 136.197,266.14 90.446,263.656 	"/>
</g>
<g>
</g>
<g>
</g>
<g>
</g>
<g>
</g>
<g>
</g>
<g>
</g>
<g>
</g>
<g>
</g>
<g>
</g>
<g>
</g>
<g>
</g>
<g>
</g>
<g>
</g>
<g>
</g>
<g>
</g>
</svg>
