<?xml version="1.0" encoding="iso-8859-1"?>
<!-- Generator: Adobe Illustrator 19.0.0, SVG Export Plug-In . SVG Version: 6.00 Build 0)  -->
<svg version="1.1" id="Capa_1" xmlns="http://www.w3.org/2000/svg" xmlns:xlink="http://www.w3.org/1999/xlink" x="0px" y="0px"
	 viewBox="0 0 491.52 491.52" style="enable-background:new 0 0 491.52 491.52;" xml:space="preserve">
<circle style="fill:#45B39C;" cx="245.76" cy="245.76" r="245.76"/>
<path style="opacity:0.1;enable-background:new    ;" d="M490.519,267.366L380.898,157.745c-0.22-0.245-0.45-0.474-0.694-0.694
	l-0.001-0.001c-1.618-1.453-3.737-2.363-6.083-2.363H263.59l-18.227-18.227c-0.042-0.043-0.084-0.085-0.127-0.127l-0.104-0.103
	l-0.004,0.015c-1.925-1.845-4.524-2.993-7.401-2.993c-5.92,0-10.718,4.798-10.718,10.718v10.718h-13.363
	c-5.048,0-9.141,4.092-9.141,9.141v28.439h-42.543c-7.639,0-14.726,3.98-18.7,10.504l-31.356,51.457
	c-1.212,1.99-1.854,4.275-1.854,6.605v16.124v9.336v23.792h-5.091v19.763l160.795,160.795
	C384.985,481.031,480.144,386.378,490.519,267.366z"/>
<path style="fill:#EBF0F3;" d="M374.121,154.687H213.646c-5.048,0-9.141,4.092-9.141,9.141v146.255h178.757V163.828
	C383.262,158.78,379.169,154.687,374.121,154.687z"/>
<path style="fill:#E1E6E9;" d="M110.051,310.084h94.454V192.267h-42.543c-7.639,0-14.726,3.98-18.7,10.504l-31.356,51.457
	c-1.212,1.99-1.854,4.275-1.854,6.605V310.084z"/>
<path style="fill:#27A2DB;" d="M197.191,257.285v-57.703h-35.229c-5.053,0-9.826,2.681-12.455,6.995l-30.899,50.708H197.191z"/>
<path style="fill:#D5D6DB;" d="M274.515,179.598h-52.14c-2.797,0-5.065,2.268-5.065,5.065v125.421h62.269V184.663
	C279.58,181.865,277.312,179.598,274.515,179.598z"/>
<rect x="110.049" y="276.941" style="fill:#E56353;" width="273.203" height="9.334"/>
<rect x="228.941" y="193.935" style="fill:#27A2DB;" width="39.009" height="39.009"/>
<circle style="fill:#E56353;" cx="329.779" cy="223.611" r="31.34"/>
<polygon style="fill:#FFFFFF;" points="348.471,219.183 334.226,219.183 334.226,204.937 325.374,204.937 325.374,219.183 
	311.129,219.183 311.129,228.035 325.374,228.035 325.374,242.28 334.226,242.28 334.226,228.035 348.471,228.035 "/>
<rect x="104.96" y="310.067" style="fill:#64798A;" width="281.6" height="19.763"/>
<path style="fill:#2F4859;" d="M290.115,329.847c0-18.495,15.05-33.54,33.545-33.54c18.495,0,33.54,15.045,33.54,33.54"/>
<circle style="fill:#3A556A;" cx="323.635" cy="329.83" r="28.421"/>
<circle style="fill:#64798A;" cx="323.635" cy="329.83" r="19.272"/>
<g>
	<circle style="fill:#2F4859;" cx="323.635" cy="329.83" r="3.61"/>
	<circle style="fill:#2F4859;" cx="323.635" cy="316.078" r="2.181"/>
	<circle style="fill:#2F4859;" cx="323.635" cy="343.603" r="2.181"/>
	<ellipse style="fill:#2F4859;" cx="311.728" cy="336.734" rx="2.181" ry="2.181"/>
	<ellipse style="fill:#2F4859;" cx="335.571" cy="322.976" rx="2.181" ry="2.181"/>
	<ellipse style="fill:#2F4859;" cx="335.572" cy="336.758" rx="2.181" ry="2.181"/>
	<ellipse style="fill:#2F4859;" cx="311.739" cy="322.955" rx="2.181" ry="2.181"/>
	<path style="fill:#2F4859;" d="M124.36,329.847c0-18.495,15.045-33.54,33.54-33.54c18.495,0,33.54,15.045,33.54,33.54"/>
</g>
<circle style="fill:#3A556A;" cx="157.901" cy="329.83" r="28.421"/>
<circle style="fill:#64798A;" cx="157.901" cy="329.83" r="19.272"/>
<g>
	<circle style="fill:#2F4859;" cx="157.901" cy="329.83" r="3.61"/>
	<circle style="fill:#2F4859;" cx="157.901" cy="316.078" r="2.181"/>
	<circle style="fill:#2F4859;" cx="157.901" cy="343.603" r="2.181"/>
	<ellipse style="fill:#2F4859;" cx="145.967" cy="336.734" rx="2.181" ry="2.181"/>
	<ellipse style="fill:#2F4859;" cx="169.834" cy="322.967" rx="2.181" ry="2.181"/>
	<ellipse style="fill:#2F4859;" cx="169.85" cy="336.726" rx="2.181" ry="2.181"/>
	<ellipse style="fill:#2F4859;" cx="145.998" cy="322.969" rx="2.181" ry="2.181"/>
</g>
<path style="fill:#E56353;" d="M237.727,133.252c-5.92,0-10.718,4.798-10.718,10.718v10.718h21.436v-10.718
	C248.445,138.05,243.646,133.252,237.727,133.252z"/>
<g>
</g>
<g>
</g>
<g>
</g>
<g>
</g>
<g>
</g>
<g>
</g>
<g>
</g>
<g>
</g>
<g>
</g>
<g>
</g>
<g>
</g>
<g>
</g>
<g>
</g>
<g>
</g>
<g>
</g>
</svg>
