<?xml version="1.0" encoding="iso-8859-1"?>
<!-- Generator: Adobe Illustrator 19.0.0, SVG Export Plug-In . SVG Version: 6.00 Build 0)  -->
<svg version="1.1" id="Capa_1" xmlns="http://www.w3.org/2000/svg" xmlns:xlink="http://www.w3.org/1999/xlink" x="0px" y="0px"
	 viewBox="0 0 512 512" style="enable-background:new 0 0 512 512;" xml:space="preserve">
<polygon style="fill:#6D7881;" points="7.5,151 7.5,361 37.5,361 77.5,256 37.5,151 "/>
<polygon style="fill:#3B4145;" points="37.5,151 37.5,361 127.5,361 167.5,256 127.5,151 "/>
<polygon style="fill:#525A61;" points="344.5,256 329.5,37.5 299.5,54.356 269.5,256 299.5,457.644 329.5,474.5 "/>
<polygon style="fill:#6D7881;" points="127.5,151 127.5,361 299.5,457.644 299.5,54.356 "/>
<path style="fill:#A4B4C0;" d="M344.5,7.5c-8.284,0-15,6.716-15,15v467c0,8.284,6.716,15,15,15s15-6.716,15-15v-467
	C359.5,14.216,352.784,7.5,344.5,7.5z"/>
<g>
	<path style="fill:#54BBFF;" d="M446.8,402.8c-1.92,0-3.839-0.732-5.304-2.197c-2.929-2.929-2.929-7.678,0-10.606
		C477.288,354.205,497,306.617,497,256s-19.712-98.205-55.504-133.997c-2.929-2.929-2.929-7.678,0-10.606
		c2.928-2.928,7.676-2.93,10.607,0C490.729,150.022,512,201.376,512,256s-21.271,105.978-59.896,144.603
		C450.639,402.067,448.719,402.8,446.8,402.8z"/>
	<path style="fill:#54BBFF;" d="M418.15,374.516c-1.919,0-3.839-0.732-5.304-2.197c-2.929-2.929-2.929-7.678,0-10.606
		c58.29-58.29,58.29-153.135,0-211.425c-2.929-2.929-2.929-7.678,0-10.606c2.931-2.929,7.679-2.929,10.607,0
		c64.138,64.138,64.138,168.5,0,232.638C421.989,373.783,420.069,374.516,418.15,374.516z"/>
	<path style="fill:#54BBFF;" d="M389.5,346.231c-1.919,0-3.839-0.732-5.304-2.197c-2.929-2.929-2.929-7.678,0-10.606
		c42.694-42.694,42.694-112.162,0-154.856c-2.929-2.929-2.929-7.678,0-10.606c2.93-2.929,7.678-2.929,10.607,0
		c48.542,48.542,48.542,127.527,0,176.069C393.339,345.499,391.419,346.231,389.5,346.231z"/>
</g>
<path d="M344.5,0C332.094,0,322,10.094,322,22.5v10.611L125.537,143.5H7.5c-4.143,0-7.5,3.358-7.5,7.5v210
	c0,4.142,3.357,7.5,7.5,7.5h118.037L322,478.889V489.5c0,12.407,10.094,22.5,22.5,22.5s22.5-10.093,22.5-22.5v-467
	C367,10.094,356.906,0,344.5,0z M15,158.5h15v195H15V158.5z M135,356.611V211c0-4.142-3.357-7.5-7.5-7.5s-7.5,3.358-7.5,7.5v142.5
	H45v-195h75V181c0,4.142,3.357,7.5,7.5,7.5c4.143,0,7.5-3.358,7.5-7.5v-25.611L322,50.317v411.366L135,356.611z M352,489.5
	c0,4.136-3.364,7.5-7.5,7.5s-7.5-3.364-7.5-7.5v-14.88c0-0.017,0-437.223,0-437.223c0-0.017,0-14.897,0-14.897
	c0-4.136,3.364-7.5,7.5-7.5s7.5,3.365,7.5,7.5V489.5z"/>
<g>
</g>
<g>
</g>
<g>
</g>
<g>
</g>
<g>
</g>
<g>
</g>
<g>
</g>
<g>
</g>
<g>
</g>
<g>
</g>
<g>
</g>
<g>
</g>
<g>
</g>
<g>
</g>
<g>
</g>
</svg>
